<svg xmlns="http://www.w3.org/2000/svg" width="39.287" height="38.88" viewBox="0 0 39.287 38.88">
  <g id="deal_2_" data-name="deal (2)" transform="translate(-13.749 -14.785)">
    <path id="Path_22719" data-name="Path 22719" d="M42.465,20.405l.754-.4V28.95a.684.684,0,0,0,.684.684h4.187a.684.684,0,0,0,.684-.684V25.116h2.98V28.95a.684.684,0,0,0,.684.684h4.189a.684.684,0,0,0,.684-.684V20l.765.405a.684.684,0,1,0,.641-1.209l-8.182-4.335a.683.683,0,0,0-.643,0L41.819,19.2a.684.684,0,1,0,.647,1.206Zm7.752-4.16,5.726,3.033v8.987h-2.82V24.432a.684.684,0,0,0-.684-.684H48.091a.684.684,0,0,0-.684.684v3.834H44.588v-9Z" transform="translate(-16.877 0)" fill="#fff"/>
    <path id="Path_22720" data-name="Path 22720" d="M52.922,60.842a.683.683,0,0,0-.948-.2l-1.006.663L44.8,52.1l7.9-4.825a.684.684,0,0,0-.713-1.168L39.311,53.848a.684.684,0,0,0-.208.97l.479.7H32.856a3.923,3.923,0,0,0-2.2.674l-3.323-.86.352-.512a.684.684,0,0,0-.208-.97L14.79,46.105a.684.684,0,0,0-.713,1.168l7.9,4.826-6.167,9.21-1.006-.663a.684.684,0,1,0-.753,1.142l1.568,1.033,3.968,2.614a.684.684,0,0,0,.941-.185l.9-1.3,5.663,5.217,3.019,2.918a1.872,1.872,0,0,0,2.621.129,1.842,1.842,0,0,0,.361-.455A2.076,2.076,0,0,0,36.239,70.7a2.077,2.077,0,0,0,2.7-2.4,2.086,2.086,0,0,0,1.642-1.926c0-.046-.005-.091-.005-.136l4.609-2.547,1.069,1.56a.684.684,0,0,0,.941.184l3.969-2.615,1.568-1.033a.684.684,0,0,0,.194-.947Zm-12.4-3.956L43.5,61.234l-7.568-1.356a1.843,1.843,0,0,0-1.35.281l-2.815,1.876a3,3,0,0,1-3.735-.341.8.8,0,0,1,0-1.147l3.033-2.936a2.567,2.567,0,0,1,1.794-.726Zm-20.732,7.04-2.829-1.863L23.15,52.81l2.994,1.828ZM38.967,66.8a.729.729,0,0,1-1.03-.058l-3.169-3.551a.684.684,0,1,0-1.021.911l3.685,4.129a.73.73,0,1,1-1.089.973l-.516-.578-3.8-4.253a.684.684,0,1,0-1.021.911l3.792,4.25,0,0a.73.73,0,0,1-1.089.972L29.49,65.773a.684.684,0,1,0-1.021.911l3.391,3.8a.5.5,0,1,1-.748.668c-.011-.013-.023-.025-.035-.036l-3.04-2.937-.007-.005-.005-.006L22.21,62.808l4.3-6.276,2.92.757-2.352,2.276a2.166,2.166,0,0,0,0,3.112,4.378,4.378,0,0,0,5.446.5l2.625-1.75,3.879,4.346A.73.73,0,0,1,38.97,66.8Zm1.08-1.942-3.031-3.4,7.075,1.267-3.987,2.2c-.022-.024-.036-.051-.057-.075ZM47,63.925l-5.55-8.1v0L40.64,54.64l2.994-1.83,6.192,9.25Z" transform="translate(0 -19.022)" fill="#fff"/>
  </g>
</svg>
