<svg id="hammer" xmlns="http://www.w3.org/2000/svg" width="38.446" height="38.442" viewBox="0 0 38.446 38.442">
  <g id="Group_8604" data-name="Group 8604" transform="translate(0 32.035)">
    <g id="Group_8603" data-name="Group 8603">
      <path id="Path_22727" data-name="Path 22727" d="M20.022,26.407H2.4A2.406,2.406,0,0,1,0,24V22.4A2.406,2.406,0,0,1,2.4,20h17.62a2.406,2.406,0,0,1,2.4,2.4V24A2.406,2.406,0,0,1,20.022,26.407ZM2.4,21.6a.8.8,0,0,0-.8.8V24a.8.8,0,0,0,.8.8h17.62a.8.8,0,0,0,.8-.8V22.4a.8.8,0,0,0-.8-.8Z" transform="translate(0 -20)" fill="#fff"/>
    </g>
  </g>
  <g id="Group_8615" data-name="Group 8615" transform="translate(6.407 0)">
    <g id="Group_8611" data-name="Group 8611">
      <g id="Group_8606" data-name="Group 8606" transform="translate(3.67 3.67)">
        <g id="Group_8605" data-name="Group 8605">
          <path id="Path_22728" data-name="Path 22728" d="M13.342,18.848a1.392,1.392,0,0,1-1.025-.4L6.694,12.822c-.983-.983.1-2.685.452-3.242a21.992,21.992,0,0,1,2.917-3.508,21.975,21.975,0,0,1,3.511-2.923c.561-.357,2.263-1.438,3.247-.455l5.622,5.622c.985.985-.1,2.689-.455,3.248a22.014,22.014,0,0,1-2.925,3.513,21.953,21.953,0,0,1-3.506,2.915,4.633,4.633,0,0,1-2.215.855ZM15.69,3.827c-.28.011-2.037.923-4.488,3.372S7.838,11.408,7.9,11.805l5.555,5.507c.282-.011,2.039-.923,4.491-3.373,2.358-2.359,3.29-4.075,3.306-4.555Z" transform="translate(-6.291 -2.291)" fill="#fff"/>
        </g>
      </g>
      <g id="Group_8608" data-name="Group 8608" transform="translate(0 12.369)">
        <g id="Group_8607" data-name="Group 8607">
          <path id="Path_22729" data-name="Path 22729" d="M12.014,19.25a2.387,2.387,0,0,1-1.691-.7L4.7,12.928a2.39,2.39,0,0,1,0-3.381L5.826,8.422a2.394,2.394,0,0,1,3.381,0l5.622,5.622a2.394,2.394,0,0,1,0,3.381L13.705,18.55A2.39,2.39,0,0,1,12.014,19.25Zm-4.5-9.926a.794.794,0,0,0-.559.232L5.834,10.679a.789.789,0,0,0,0,1.118l5.622,5.622a.792.792,0,0,0,1.116,0L13.7,16.294a.791.791,0,0,0,0-1.116L8.075,9.556a.794.794,0,0,0-.559-.232Z" transform="translate(-4 -7.722)" fill="#fff"/>
        </g>
      </g>
      <g id="Group_8610" data-name="Group 8610" transform="translate(12.37)">
        <g id="Group_8609" data-name="Group 8609">
          <path id="Path_22730" data-name="Path 22730" d="M19.735,11.526a2.387,2.387,0,0,1-1.691-.7L12.422,5.2a2.392,2.392,0,0,1,0-3.38L13.546.7a2.394,2.394,0,0,1,3.381,0L22.55,6.322a2.394,2.394,0,0,1,0,3.381l-1.124,1.124a2.382,2.382,0,0,1-1.69.7ZM15.238,1.6a.792.792,0,0,0-.559.231L13.554,2.958a.789.789,0,0,0,0,1.115L19.176,9.7a.794.794,0,0,0,1.116,0l1.124-1.123a.791.791,0,0,0,0-1.116L15.8,1.834a.786.786,0,0,0-.557-.231Zm6.745,7.535H22Z" transform="translate(-11.723 -0.001)" fill="#fff"/>
        </g>
      </g>
    </g>
    <g id="Group_8614" data-name="Group 8614" transform="translate(14.049 14.047)">
      <g id="Group_8613" data-name="Group 8613">
        <g id="Group_8612" data-name="Group 8612">
          <path id="Path_22731" data-name="Path 22731" d="M27.709,26.763A4.644,4.644,0,0,1,24.6,25.105c-1.105-1.105-7.6-8.257-11.637-13.013a.8.8,0,0,1,1.222-1.035c4.206,4.959,10.593,11.961,11.547,12.915,1.8,1.807,2.507,1.1,2.926.687a1.406,1.406,0,0,0,.493-.831c.054-.546-.354-1.27-1.179-2.1-.947-.948-7.937-7.325-12.915-11.55a.8.8,0,1,1,1.036-1.221C20.868,13.012,28.012,19.5,29.108,20.6a4.395,4.395,0,0,1,1.64,3.388,3.412,3.412,0,0,1-3.039,2.776Z" transform="translate(-12.771 -8.77)" fill="#fff"/>
        </g>
      </g>
    </g>
  </g>
</svg>
