<svg id="location_2_" data-name="location (2)" xmlns="http://www.w3.org/2000/svg" width="38.178" height="38.178" viewBox="0 0 38.178 38.178">
  <path id="Path_22721" data-name="Path 22721" d="M71.189,36.092a4.639,4.639,0,1,0-4.638-4.639A4.639,4.639,0,0,0,71.189,36.092Zm0-7.948a3.309,3.309,0,1,1-3.309,3.309,3.309,3.309,0,0,1,3.309-3.309Z" transform="translate(-46.493 -21.851)" fill="#fff"/>
  <path id="Path_22722" data-name="Path 22722" d="M51.264,50.6H44.008V35.713l1.948,1.032a.665.665,0,1,0,.623-1.175L42.292,33.3c2.608-2.813,5.756-6.85,5.756-9.948a9.6,9.6,0,0,0-19.2,0c0,1.743,1,3.782,2.333,5.734L19.1,35.568a.665.665,0,0,0,.629,1.172L21.657,35.7V50.6H14.415a.665.665,0,0,0,0,1.33H51.264a.665.665,0,1,0,0-1.33ZM38.447,15.08a8.282,8.282,0,0,1,8.272,8.272c0,1.854-1.486,4.554-4.3,7.808a53.336,53.336,0,0,1-3.975,4.1,53.41,53.41,0,0,1-3.974-4.1c-2.811-3.254-4.3-5.954-4.3-7.808a8.282,8.282,0,0,1,8.271-8.272ZM22.988,34.99l8.974-4.815a49.8,49.8,0,0,0,6.043,6.482.665.665,0,0,0,.879,0c.122-.108,1.14-1.011,2.454-2.355l1.34.707V50.6H37.09V43.8a.665.665,0,0,0-.665-.665H29.239a.665.665,0,0,0-.665.665v6.8H22.988ZM35.76,50.6H29.9V44.464H35.76Z" transform="translate(-13.75 -13.75)" fill="#fff"/>
</svg>
