<svg id="broken-cable" xmlns="http://www.w3.org/2000/svg" width="51.333" height="38.547" viewBox="0 0 51.333 38.547">
  <path id="Path_23228" data-name="Path 23228" d="M10.115-447.794a11.877,11.877,0,0,0-8.71,6.5,11.676,11.676,0,0,0,2.388,13.527,11.452,11.452,0,0,0,3.251,2.238c2.047.973,3.663,1.184,8.509,1.134,2.82-.03,3.191-.05,3.422-.211.371-.251.492-.582.492-1.325v-.652H23.1l.291-.291a1.031,1.031,0,0,0-.331-1.706,11.373,11.373,0,0,0-1.937-.11H19.488l-.04-.763c-.03-.712-.06-.783-.361-1.054l-.321-.291H15.323c-1.887,0-3.743-.05-4.134-.1a5.812,5.812,0,0,1-3.813-2.559,5.426,5.426,0,0,1-.12-5.208A6.457,6.457,0,0,1,9.493-440.9c1.254-.672-.12-.632,21.544-.632,21.645,0,20.049.05,20.4-.612a1,1,0,0,0-.271-1.244l-.311-.251-20.18.02-20.19.03-.8.271a7.1,7.1,0,0,0-2.96,1.887,6.978,6.978,0,0,0-1.876,2.96,5.466,5.466,0,0,0-.271,2.258,6.14,6.14,0,0,0,.181,2.057,7.662,7.662,0,0,0,5.178,5.178c.7.211.983.231,4.094.271l3.332.03v2.107l-3.532-.04c-3.171-.03-3.612-.06-4.245-.241a9.642,9.642,0,0,1-6.121-4.877,9.691,9.691,0,0,1-.552-7.667,9.805,9.805,0,0,1,7.084-6.221c.632-.161,2.418-.181,20.832-.231l20.13-.05.261-.241a1.015,1.015,0,0,0,.221-1.2c-.351-.662,1.274-.612-20.6-.6C14.661-447.934,10.828-447.914,10.115-447.794Z" transform="translate(-0.224 447.949)" fill="#fff"/>
  <path id="Path_23229" data-name="Path 23229" d="M245.472-340.8c-.351.281-.472.763-.472,1.907s.12,1.626.472,1.907a1.047,1.047,0,0,0,1.636-.582,9.014,9.014,0,0,0,0-2.649,1.026,1.026,0,0,0-1-.783A1.1,1.1,0,0,0,245.472-340.8Z" transform="translate(-220.438 351.732)" fill="#fff"/>
  <path id="Path_23230" data-name="Path 23230" d="M192.911-330.332a1.245,1.245,0,0,0-.793.763c-.12.512.06.8,1.345,2.087s1.575,1.465,2.087,1.345a1.247,1.247,0,0,0,.763-.793c.1-.5-.12-.833-1.345-2.057C193.744-330.192,193.413-330.412,192.911-330.332Z" transform="translate(-172.834 342.148)" fill="#fff"/>
  <path id="Path_23231" data-name="Path 23231" d="M280.574-330.249a12.708,12.708,0,0,0-2.84,2.84.925.925,0,0,0,.231.993A1,1,0,0,0,279-326.1a14.293,14.293,0,0,0,2.88-2.89,1,1,0,0,0-.311-1.023A.944.944,0,0,0,280.574-330.249Z" transform="translate(-249.84 342.104)" fill="#fff"/>
  <path id="Path_23232" data-name="Path 23232" d="M33.263-298.855c-.682.221-.9.592-.9,1.535v.6H28.727l-.291.291a1.031,1.031,0,0,0,.331,1.706,11.367,11.367,0,0,0,1.937.11H32.34l.04.763c.03.712.06.783.361,1.054l.321.291H36.5c1.887,0,3.753.05,4.134.1a5.812,5.812,0,0,1,3.813,2.559,5.426,5.426,0,0,1,.12,5.208,6.455,6.455,0,0,1-2.238,2.238c-1.254.672.12.632-21.544.632-21.645,0-20.049-.05-20.4.612a1,1,0,0,0,.271,1.244l.311.251,20.18-.02,20.19-.03.8-.271a7.1,7.1,0,0,0,2.96-1.886,6.979,6.979,0,0,0,1.876-2.96,5.467,5.467,0,0,0,.271-2.258,6.14,6.14,0,0,0-.181-2.057,7.663,7.663,0,0,0-5.178-5.178c-.7-.211-.983-.231-4.084-.271l-3.342-.03v-2.107l3.542.04c3.161.03,3.6.06,4.235.241a9.642,9.642,0,0,1,6.121,4.877,9.69,9.69,0,0,1,.552,7.666,9.805,9.805,0,0,1-7.084,6.222c-.632.161-2.418.181-20.832.231l-20.13.05-.261.241a1.024,1.024,0,0,0,.241,1.666c.431.221,39.266.231,40.771,0a11.853,11.853,0,0,0,8.8-6.513,11.679,11.679,0,0,0-2.388-13.527,11.683,11.683,0,0,0-7.195-3.291C39.745-298.925,33.554-298.955,33.263-298.855Z" transform="translate(-0.271 313.872)" fill="#fff"/>
  <path id="Path_23233" data-name="Path 23233" d="M193.773-211.776a14.744,14.744,0,0,0-1.4,1.525,1.042,1.042,0,0,0,.993,1.465c.4,0,.472-.06,1.736-1.335a7.917,7.917,0,0,0,1.375-1.575,1.074,1.074,0,0,0-1.054-1.3C195.037-213,194.947-212.93,193.773-211.776Z" transform="translate(-172.993 236.576)" fill="#fff"/>
  <path id="Path_23234" data-name="Path 23234" d="M278.04-212.789a1.225,1.225,0,0,0-.381,1.094,7.915,7.915,0,0,0,1.375,1.575c1.264,1.274,1.335,1.335,1.736,1.335a1.042,1.042,0,0,0,.993-1.465,14.751,14.751,0,0,0-1.4-1.525c-1.174-1.154-1.264-1.224-1.646-1.224A1.118,1.118,0,0,0,278.04-212.789Z" transform="translate(-249.805 236.576)" fill="#fff"/>
  <path id="Path_23235" data-name="Path 23235" d="M246.293-202.475a1.3,1.3,0,0,0-.5.341l-.291.3v1.425c0,1.616.09,1.876.712,2.077a1.077,1.077,0,0,0,1.214-.381c.151-.231.181-.482.181-1.7v-1.435l-.3-.291A1.121,1.121,0,0,0,246.293-202.475Z" transform="translate(-220.887 227.125)" fill="#fff"/>
</svg>
