<svg id="construction" xmlns="http://www.w3.org/2000/svg" width="46.606" height="46.631" viewBox="0 0 46.606 46.631">
  <path id="Path_23252" data-name="Path 23252" d="M23.29-511.739a3.134,3.134,0,0,0-1.494,1.048,2.744,2.744,0,0,1-1.1.765,5.866,5.866,0,0,0-2.705,2.669c-.364.756-.41.811-.975,1.139a5.246,5.246,0,0,0-1.084.874,5.675,5.675,0,0,0-1.193,2.132c-.055.292-.128.355-.774.683a5.8,5.8,0,0,0-3,3.7c-.091.364-.118.392-.4.392a1.4,1.4,0,0,0-1.13.82,2.642,2.642,0,0,0-.2,1.412c.009,1.457.319,2.022,1.239,2.214l.355.073.291,2.86c.355,3.516.346,3.252.1,3.325a3.578,3.578,0,0,0-1.339,1c-.173.255-.273.319-.519.319a.715.715,0,0,1-.31-.036c0-.164-4.045-14.839-4.163-15.112a2.738,2.738,0,0,0-1.148-1.175,2.725,2.725,0,0,0-2.122-.009,2.447,2.447,0,0,0-1.376,2.214c-.036.647.055,1.02,1.731,7.379l1.767,6.7-.51.046a1.656,1.656,0,0,0-1.239.619c-.155.209-.182.419-.21,1.494-.027,1.029-.009,1.3.128,1.576a1.667,1.667,0,0,0,1.111.774.734.734,0,0,1,.21.018c.009.018.164,3.343.355,7.406.373,8.043.346,7.788.938,8.417a3.291,3.291,0,0,0,.747.519l.455.219h36.9l.4-.2a1.28,1.28,0,0,0,.619-.619c.2-.392.2-.465.2-3.689s0-3.3-.2-3.689a1.384,1.384,0,0,0-.574-.61c-.355-.2-.446-.21-2.8-.21H37.837v-3.143c0-3.425-.009-3.516-.51-3.972a2.079,2.079,0,0,0-1.594-.446c-.428,0-.72-.036-.72-.091,0-.091,4.054-21.789,4.145-22.2.046-.2.046-.2,2.988-.228,2.751-.027,2.961-.036,3.343-.219a2.508,2.508,0,0,0,1.157-1.12,3.8,3.8,0,0,0,.191-1.549c.036-1.4-.064-1.8-.61-2.4-.638-.711-.537-.7-5.147-.7-3.972,0-4.108.009-4.491.191a2.564,2.564,0,0,0-1.12,1.212c-.082.273-1.093,5.62-1.093,5.83,0,.055-.164-.091-.364-.328a6.64,6.64,0,0,0-1.958-1.385c-.319-.128-.4-.228-.619-.72a5.984,5.984,0,0,0-2.961-2.951l-.656-.31-.41-.82a3.475,3.475,0,0,0-2.232-2.122A3.028,3.028,0,0,0,23.29-511.739Zm2,1.676a4.279,4.279,0,0,1,.92,1.421c.565,1.1.619,1.175.911,1.23a4.728,4.728,0,0,1,2.077,1.221,4.445,4.445,0,0,1,1.12,1.949c.137.474.164.51.474.574a4.291,4.291,0,0,1,2.933,2.532c.173.483.173.492,0,1.439-.1.519-.2,1.038-.219,1.148l-.046.21H12.413l.064-.21a4.853,4.853,0,0,1,.947-1.649,4.6,4.6,0,0,1,2.031-1.193c.392-.073.437-.146.656-1.038A3.618,3.618,0,0,1,18.1-505a3.488,3.488,0,0,1,.674-.264c.055,0,.182-.282.291-.619a4.368,4.368,0,0,1,2.879-2.951c.51-.164.629-.246.774-.519a2.514,2.514,0,0,1,.865-.911,2.022,2.022,0,0,1,.783-.082A1.378,1.378,0,0,1,25.294-510.063Zm19.776,1.348c.237.182.237.2.237,1.312,0,1.658.474,1.5-4.71,1.5-3.99,0-4.227-.009-4.181-.164.027-.082.137-.665.255-1.293.155-.875.246-1.184.41-1.348l.2-.2h3.771C44.733-508.906,44.833-508.9,45.07-508.715Zm-7.451,4.609c-.1.483-4.154,22.163-4.154,22.208a2.847,2.847,0,0,1-.729.046c-.519,0-.729-.036-.729-.109,0-.1,3.789-20.787,4.017-21.917l.091-.474h1.558ZM3.3-501.1c.219.228.483,1.12,2.186,7.406,1.075,3.935,1.968,7.205,1.995,7.26.027.091-.219.118-1.057.118-.966,0-1.1-.018-1.148-.164-.027-.082-.829-3.115-1.785-6.741-1.9-7.251-1.931-7.388-1.467-7.861A.889.889,0,0,1,3.3-501.1Zm29.842,4.555c-.027.191-.1.537-.155.774l-.091.437H10.783v-1.549H33.21Zm-.537,2.915c-.091.455-2.15,11.66-2.15,11.724,0,.027-1.084.055-2.414.055a10.38,10.38,0,0,0-2.751.137,1.389,1.389,0,0,0-.856.82c-.155.328-.173.656-.173,3.48v3.124H20.876l.055-.847c.027-.455.1-1.822.146-3.024s.118-2.523.146-2.924l.055-.747.346-.055a1.491,1.491,0,0,0,1.093-1.057,5.681,5.681,0,0,0,.073-1.376c-.027-.856-.055-1-.273-1.33-.437-.665-.437-.665-4.3-.665-1.886,0-3.425-.036-3.425-.073,0-.219-.711-.865-1.239-1.12-.392-.191-.6-.355-.629-.483-.018-.109-.146-1.3-.273-2.651s-.255-2.633-.282-2.851l-.055-.383h20.35Zm-19.649,7.5a1.447,1.447,0,0,1,.273,2.387,1.289,1.289,0,0,1-1.6.246,1.35,1.35,0,0,1-.847-1.312A1.469,1.469,0,0,1,12.96-486.133Zm-3.625,1.849c.082.31.182.656.219.765l.064.21H3.222v-1.549H9.189Zm11.924.2v.774H18.07c-1.749,0-3.188-.009-3.188-.027s.082-.237.182-.5a2.8,2.8,0,0,0,.182-.747v-.273h6.012Zm-9.884,2.614A16.321,16.321,0,0,1,6.82-472.25a5.831,5.831,0,0,1-1.539,1.321c-.018-.018-.118-2.068-.228-4.546s-.219-4.928-.255-5.447l-.055-.929h6.7Zm8.335-.137c0,.146-.064,1.84-.155,3.789l-.155,3.525-.383.228a1.4,1.4,0,0,0-.574.619c-.182.373-.191.537-.191,3.507v3.115L12-466.839l-6.258-.027-.164-.228a2.283,2.283,0,0,1-.2-1.075l-.046-.847.683-.51a17.981,17.981,0,0,0,5.894-7.971,20.112,20.112,0,0,0,.929-3.653,5.473,5.473,0,0,1,.1-.638c.018-.036,1.549-.064,3.407-.064H19.71ZM36.289-477.3v3.006H25.813V-480.3H36.289Zm-6.012,7.47v3.006H19.8v-6.012H30.277Zm12.024,0v3.006H31.825v-6.012H42.3Z" transform="translate(-0.238 511.903)" fill="#fff"/>
  <path id="Path_23253" data-name="Path 23253" d="M233.231-461.736a2.957,2.957,0,0,0-1.7,2.378l-.027.319h1.439l.128-.428a1.421,1.421,0,0,1,1.029-.993l.364-.109V-462h-.337A2.641,2.641,0,0,0,233.231-461.736Z" transform="translate(-210.434 466.546)" fill="#fff"/>
  <path id="Path_23254" data-name="Path 23254" d="M183.977-412.9a3.066,3.066,0,0,0-2.223,2.46l-.055.446h1.439l.164-.446a1.519,1.519,0,0,1,.956-.975,2.625,2.625,0,0,0,.364-.091c.073-.018.109-.255.109-.765C184.733-413.092,184.742-413.083,183.977-412.9Z" transform="translate(-165.17 422.01)" fill="#fff"/>
  <path id="Path_23255" data-name="Path 23255" d="M297-412.462c0,.519.036.756.118.774a2.161,2.161,0,0,0,.355.091,1.519,1.519,0,0,1,.956.975l.164.446h1.439l-.055-.446a3.045,3.045,0,0,0-2.541-2.514L297-413.2Z" transform="translate(-269.967 422.191)" fill="#fff"/>
</svg>
