<svg id="engineer" xmlns="http://www.w3.org/2000/svg" width="48.541" height="54.486" viewBox="0 0 48.541 54.486">
  <path id="Path_23256" data-name="Path 23256" d="M45.832-511.835c-.532.224-.639.49-.692,1.852l-.053,1.288-.958.383A21.513,21.513,0,0,0,32.791-497.5a21.265,21.265,0,0,0-1.938,8.3l-.117,2.236-.49.2c-1.448.586-1.895.82-2.065,1.118-.16.266-.181.692-.181,3.513a22.575,22.575,0,0,0,.117,3.439c.256.5.522.607,1.512.607h.926v1.246c0,1.395.16,1.852.7,2.055a15.447,15.447,0,0,0,2.363.107h2.1l.3.937a20.967,20.967,0,0,0,.82,2l.511,1.054-1.512,1.544c-1.544,1.576-1.693,1.8-1.576,2.417a15.247,15.247,0,0,0,2.353,2.63c2.661,2.693,2.96,2.938,3.556,2.938.394,0,.5-.075,2-1.565l1.586-1.554.99.49c.554.266,1.458.649,2.023.841l1.033.351v4.439l.3.3a1.4,1.4,0,0,0,.777.373c.255.032,1.959.053,3.769.032,2.981-.032,3.332-.053,3.588-.224.447-.309.511-.681.511-2.9v-2.044l.884-.287c.479-.16,1.395-.532,2.023-.83l1.15-.543,1.576,1.554c1.544,1.544,1.576,1.565,2.044,1.565h.468l2.683-2.693,2.693-2.683v-.468c0-.468-.021-.5-1.565-2.044l-1.554-1.576.543-1.15a18.47,18.47,0,0,0,.82-2.033l.287-.873h2.119a10.906,10.906,0,0,0,2.374-.128c.532-.234.639-.564.681-1.98l.043-1.3h.894c.83,0,.916-.021,1.235-.309l.351-.309.032-3.29c.043-4.024.138-3.737-1.629-4.514l-1.171-.5-.021-1a22.72,22.72,0,0,0-2.321-10.1,20,20,0,0,0-4.088-5.632,20.932,20.932,0,0,0-6.526-4.418l-1.309-.564-.053-1.2a5.822,5.822,0,0,0-.192-1.448c-.309-.564-.266-.564-6.962-.554C48.834-511.92,45.949-511.878,45.832-511.835Zm11.317,11.53.021,9.347H47.376V-509.7l4.876.021,4.865.032ZM45.14-497.814v8.474l.3.3a1.405,1.405,0,0,0,.777.373c.256.032,3.151.053,6.43.032,6.547-.032,6.281-.011,6.6-.681.138-.3.16-1.49.16-8.655,0-4.578.021-8.314.043-8.314a20.318,20.318,0,0,1,2.651,1.309,19.734,19.734,0,0,1,6.483,6.377,20.327,20.327,0,0,1,2.555,6.632,21.052,21.052,0,0,1,.266,3.588c.053,2.012.085,2.459.234,2.715.138.213.5.437,1.405.83l1.214.543.032,1.991.021,1.991H30.236v-4l1.192-.522c1.7-.766,1.618-.575,1.693-3.7a17.468,17.468,0,0,1,.351-3.886A18.98,18.98,0,0,1,43.8-505.714a13.519,13.519,0,0,1,1.246-.575C45.1-506.289,45.14-502.477,45.14-497.814Zm-1.948,20.536a9.24,9.24,0,0,0,5.067,6.451,8.163,8.163,0,0,0,3.854.884,8.824,8.824,0,0,0,5.185-1.49,10.8,10.8,0,0,0,2.512-2.4,10.6,10.6,0,0,0,1.565-3.854l.064-.394H71.627l.064.234a3.178,3.178,0,0,1,.064.586v.351H69.721c-2.566,0-2.587.011-2.97,1.331a17.173,17.173,0,0,1-1.682,4.014c-.7,1.235-.692,1.277,1.118,3.087l1.469,1.469-1.6,1.6-1.6,1.6-1.331-1.32c-1.5-1.48-1.735-1.661-2.161-1.661a8.28,8.28,0,0,0-1.7.735,16.372,16.372,0,0,1-3.726,1.448c-.979.266-1.033.4-1.033,2.9v2.055h-4.45l-.043-2.108c-.043-2.566-.043-2.576-1.182-2.9a17,17,0,0,1-4.226-1.757,1.6,1.6,0,0,0-1.448-.319,13.317,13.317,0,0,0-1.639,1.48,13.931,13.931,0,0,1-1.437,1.341,17.335,17.335,0,0,1-1.65-1.544l-1.544-1.544,1.405-1.405c1.427-1.448,1.629-1.714,1.629-2.108a6.5,6.5,0,0,0-.639-1.373,14.547,14.547,0,0,1-1.49-3.609c-.181-.671-.309-.937-.554-1.139-.309-.266-.33-.266-2.385-.266H32.791v-1.171l5.131.021,5.121.032Zm15.916-.735c.192.192-.543,2.023-1.182,2.949a7.194,7.194,0,0,1-6.5,2.853,7.064,7.064,0,0,1-6.015-5.525l-.075-.341H52.2C55.967-478.077,59.075-478.045,59.107-478.013Z" transform="translate(-28 511.923)" fill="#fff"/>
</svg>
