<svg id="investment" xmlns="http://www.w3.org/2000/svg" width="47.452" height="47.443" viewBox="0 0 47.452 47.443">
  <path id="Path_23241" data-name="Path 23241" d="M49.963-511.109c-1.705.426-3.1.788-3.123.8a6.04,6.04,0,0,0,.176.788c.148.612.222.76.343.723.63-.195,3.559-.89,3.6-.862.065.074-4.069,4.189-5.3,5.273a71.718,71.718,0,0,1-16.311,10.964,72.983,72.983,0,0,1-21.335,6.719c-.621.1-.677.13-.63.306.019.111.083.454.139.751a3.349,3.349,0,0,0,.12.584c.037.028,1.817-.278,3.818-.658A76.193,76.193,0,0,0,26.1-490.182c2.048-.853,6.154-2.892,8.156-4.05A74.383,74.383,0,0,0,50.77-507.152L52.558-509v4.217h1.576v-6.6l-.269-.269a.751.751,0,0,0-.538-.259C53.189-511.906,51.669-511.545,49.963-511.109Z" transform="translate(-6.682 511.907)" fill="#fff"/>
  <path id="Path_23242" data-name="Path 23242" d="M39.25-349.771c-.1.037-1.677,1.576-3.494,3.4l-3.318,3.327V-319H30.862v-8.712c0-7.238-.019-8.767-.13-9.018-.074-.167-1.548-1.715-3.364-3.522l-3.234-3.216h-.816l-3.234,3.216c-1.817,1.807-3.29,3.355-3.364,3.522-.111.25-.13,1.779-.13,9.018V-319H15.014v-11.437L11.65-333.8c-3.281-3.29-3.364-3.364-3.726-3.364s-.445.074-3.707,3.336L.88-330.493l-.046,5.718-.046,5.728L.4-319.02l-.4.028v1.566H47.452v-1.566l-.389-.028-.4-.028-.028-12.039-.019-12.048-3.086-3.1c-1.687-1.705-3.244-3.216-3.438-3.364C39.722-349.873,39.565-349.91,39.25-349.771Zm5.792,19.064V-319H41.891V-322.5l-.241-.223c-.232-.222-.25-.222-2.132-.222-2.493,0-2.3-.176-2.336,2.178L37.155-319H34.013v-23.4l2.753-2.753,2.762-2.762,2.753,2.753,2.762,2.762ZM26.525-338.77l2.762,2.762V-319H26.135v-1.566c0-1.8-.065-2.1-.519-2.289a12.93,12.93,0,0,0-3.781,0c-.454.185-.519.491-.519,2.289V-319H18.165v-17.007l2.753-2.753c1.52-1.52,2.78-2.762,2.808-2.762S25.014-340.28,26.525-338.77Zm-15.8,6.256,2.715,2.715V-319H10.3l-.028-1.761c-.037-2.354.158-2.178-2.336-2.178-1.881,0-1.9,0-2.132.222l-.241.223V-319H2.41v-10.8L5.116-332.5C6.608-334,7.868-335.22,7.924-335.22S9.24-334,10.723-332.514ZM8.712-320.206v1.2H7.136v-2.41H8.712Zm15.8,0v1.159H22.938L22.91-320.1a11.67,11.67,0,0,1,.019-1.186c.037-.093.241-.12.816-.1l.769.028Zm15.8,0v1.2H38.74v-2.41h1.576Z" transform="translate(0 364.869)" fill="#fff"/>
</svg>
