<svg xmlns="http://www.w3.org/2000/svg" width="46.361" height="46.351" viewBox="0 0 46.361 46.351">
  <g id="park" transform="translate(-0.05 511.841)">
    <path id="Path_23236" data-name="Path 23236" d="M7.2-511.665a5.142,5.142,0,0,0-2.454,1.44,5.222,5.222,0,0,0-1.458,2.572c-.109.489-.127.516-.48.607a3.913,3.913,0,0,0-2.7,4.274,3.891,3.891,0,0,0,3.333,3.233c.353.045,1.621.091,2.825.091H8.449l.1.29a1.2,1.2,0,0,1,.082.3c-.018.018-.272.091-.571.181a7.491,7.491,0,0,0-2.472,1.34,6.846,6.846,0,0,0-2.472,5.37,7.057,7.057,0,0,0,1.023,3.758,3.368,3.368,0,0,1,.254.471,1.692,1.692,0,0,1-.426.3,8.242,8.242,0,0,0-3.278,3.794A6.878,6.878,0,0,0,.1-480.432a6.741,6.741,0,0,0,.661,3.305,7.954,7.954,0,0,0,8.549,4.537,10.436,10.436,0,0,0,2.21-.752c.091-.036.118.625.118,3.133v3.179H.571l-.263.263a.627.627,0,0,0,0,1.014l.263.263H45.886l.263-.263a.861.861,0,0,0,.263-.507.86.86,0,0,0-.263-.507c-.235-.226-.335-.263-.77-.263h-.507v-2.354h.543c.6,0,.851-.154.96-.607.136-.525-.335-.933-1.069-.933h-.435v-.724h.435c.734,0,1.2-.408,1.069-.933-.109-.453-.362-.607-.96-.607h-.543v-2.354h.507c.435,0,.534-.036.77-.263a.627.627,0,0,0,0-1.014c-.226-.226-.335-.263-.761-.263-.462,0-.5-.018-.607-.272a.669.669,0,0,0-.724-.453c-.3,0-.724.344-.724.589,0,.118-.67.136-6.2.136-5.95,0-6.2-.009-6.2-.163,0-.263-.38-.561-.715-.561-.4,0-.607.127-.715.453-.091.254-.127.272-.6.272-.652,0-1,.263-1,.77s.344.77,1,.77h.489v2.354H28.87c-.589.009-.8.118-.942.525-.2.571.29,1.014,1.1,1.014.353,0,.353,0,.353.362s0,.362-.353.362c-.815,0-1.3.444-1.1,1.014.145.408.353.516.942.525h.516v2.354H16.255V-470.2a30.26,30.26,0,0,1,.082-3.17A4.971,4.971,0,0,1,17-473.1a7.109,7.109,0,0,0,3.287.607,6.994,6.994,0,0,0,2.925-.706,7.891,7.891,0,0,0,4.637-7.281,8.1,8.1,0,0,0-3.894-6.973c-.226-.136-.417-.263-.435-.272a3.638,3.638,0,0,1,.29-.552,7.064,7.064,0,0,0-2.744-9.9,8.7,8.7,0,0,0-1.241-.516l-.552-.145.226-.7a4.587,4.587,0,0,0,.226-1.775,4.168,4.168,0,0,0-.245-1.811,6,6,0,0,0-2.988-3.487,5.389,5.389,0,0,0-2.2-.634c-.344,0-.389-.027-.444-.254a5.5,5.5,0,0,0-2.2-3.351A5.356,5.356,0,0,0,7.2-511.665Zm2.1,1.449a3.811,3.811,0,0,1,2.988,3.006c.018.127-.082.217-.408.344a6.41,6.41,0,0,0-2.69,2.173A6.114,6.114,0,0,0,8.15-501.6l-.054.525H3.342l-.48-.235a2.313,2.313,0,0,1-.824-3.378,2.342,2.342,0,0,1,1.639-.951,1.628,1.628,0,0,0,.815-.308,3.012,3.012,0,0,0,.245-.933,3.677,3.677,0,0,1,1-2.173A3.8,3.8,0,0,1,9.3-510.216Zm5.714,4.655a4.53,4.53,0,0,1,2.608,1.992,4.628,4.628,0,0,1-.1,4.655c-.571.924-.3,1.413.869,1.549a5.249,5.249,0,0,1,3.3,1.549,5.108,5.108,0,0,1,1.567,3.885,5.54,5.54,0,0,1-1.521,3.876c-.589.733-.444,1.041.8,1.639A6.326,6.326,0,0,1,26-482.47a6.441,6.441,0,0,1-.389,4.836,4.776,4.776,0,0,1-1.241,1.684,4.7,4.7,0,0,1-1.684,1.25,6.523,6.523,0,0,1-2.708.7,6.382,6.382,0,0,1-4.772-2.345l-.4-.507,2.644-2.644c2.463-2.463,2.644-2.671,2.644-2.961a.751.751,0,0,0-.752-.779c-.29,0-.471.154-2.472,2.146l-2.155,2.146v-7.869l1.92-1.92c1.8-1.8,1.92-1.938,1.92-2.255a.787.787,0,0,0-.779-.761c-.235,0-.48.208-1.666,1.376L14.716-489v-3.812l-.235-.245a.765.765,0,0,0-.951-.118c-.317.245-.353.48-.353,2.336V-489l-1.386-1.376c-1.449-1.44-1.6-1.53-2.065-1.277a.84.84,0,0,0-.344.9,22.683,22.683,0,0,0,1.938,2.083l1.856,1.856v7.869l-2.155-2.146c-1.9-1.893-2.191-2.146-2.436-2.146-.5,0-.8.371-.761.951a33.331,33.331,0,0,0,2.635,2.807l2.635,2.635-.2.272A6.384,6.384,0,0,1,7.987-474a6.457,6.457,0,0,1-5.714-3.568,5.505,5.505,0,0,1-.634-2.907,5.908,5.908,0,0,1,.634-2.916,6.276,6.276,0,0,1,3.079-3.016,4.071,4.071,0,0,0,1.032-.634c.2-.362.1-.67-.371-1.223A6.075,6.075,0,0,1,4.8-490.584a7.033,7.033,0,0,1,.118-3.2,5.454,5.454,0,0,1,4.845-3.631c.571-.063.833-.245.933-.625.036-.163-.045-.407-.308-.887a4.638,4.638,0,0,1-.67-2.436,4.176,4.176,0,0,1,1.2-3.007A4.232,4.232,0,0,1,15.015-505.562Zm28.317,31.2v1.177l-6.176-.018-6.185-.027-.027-1.159-.027-1.15H43.332Zm-28.616,3.55v3.785H13.176v-7.552l.38-.389.38-.389.389.38.389.38Zm28.616-.471v.362H30.925v-.724H43.332Zm0,3.079v1.177H30.925v-1.114a5.9,5.9,0,0,1,.063-1.177c.027-.036,2.825-.063,6.2-.063h6.14Z" transform="translate(0)" fill="#fff"/>
    <path id="Path_23237" data-name="Path 23237" d="M331.38-434.741a5.4,5.4,0,0,0-3.559,3.233,7.1,7.1,0,0,0-.29.915c-.054.3-.1.335-.534.471a3.9,3.9,0,0,0-2.6,3.088,3.862,3.862,0,0,0,2.246,4.066l.616.29,5.406.027c6.067.027,5.959.036,6.937-.616a3.818,3.818,0,0,0,.661-5.823,3.831,3.831,0,0,0-1.693-1.06c-.344-.1-.371-.136-.471-.607a5.575,5.575,0,0,0-4.012-4.048A5.487,5.487,0,0,0,331.38-434.741Zm2.382,1.467a3.8,3.8,0,0,1,2.88,3.215,4.331,4.331,0,0,0,.19.869.863.863,0,0,0,.752.4,2.611,2.611,0,0,1,1.567.761,2.275,2.275,0,0,1-.082,3.215c-.625.625-.3.6-6.058.625-5.814.027-5.651.045-6.357-.6a1.948,1.948,0,0,1-.706-1.268,2.316,2.316,0,0,1,.915-2.273,3.535,3.535,0,0,1,1.594-.516c.308-.054.471-.389.561-1.1A3.836,3.836,0,0,1,333.762-433.274Z" transform="translate(-294.931 -69.934)" fill="#fff"/>
  </g>
</svg>
