<svg id="route" xmlns="http://www.w3.org/2000/svg" width="51.834" height="46.56" viewBox="0 0 51.834 46.56">
  <path id="Path_23257" data-name="Path 23257" d="M6.753-483.856a55.507,55.507,0,0,0-6.51,2.288L0-481.335v37.4l.283.273a.866.866,0,0,0,.688.273c.233,0,2.774-.78,6.449-1.964l6.044-1.964,12.28,3.989c6.743,2.187,12.432,3.989,12.625,3.989s3.189-.921,6.662-2.045c4.778-1.549,6.378-2.116,6.56-2.3l.243-.243v-37.367l-.273-.284a.783.783,0,0,0-.678-.283c-.263,0-2.673.739-6.459,1.964l-6.054,1.974L33.237-479.6c-2.835-.911-8.352-2.713-12.28-3.989-4.829-1.569-7.259-2.318-7.542-2.308C13.181-485.9,10.347-485.02,6.753-483.856Zm5.7,4.323c0,2.116-.02,3.847-.051,3.847-.071,0-5.528-5.892-5.487-5.933s5.275-1.751,5.416-1.751C12.422-483.38,12.452-482.55,12.452-479.533Zm10.61-1.124c4.606,1.5,9.7,3.159,11.308,3.685l2.936.952.03,9.243.02,9.243-.344-.061a9.879,9.879,0,0,1-1.5-.587,3.311,3.311,0,0,0-1.954-.537,3.963,3.963,0,0,0-3.979,4.242,4.654,4.654,0,0,0,1.346,2.835c.668.79.992,1.336.891,1.5a2.019,2.019,0,0,1-.425.273,6.964,6.964,0,0,1-2,.344c-2.4.233-3.341.6-4.313,1.681a7.076,7.076,0,0,0-1.033,1.691c0,.01-2.146-.678-4.758-1.529l-4.758-1.549-.03-2.652c-.01-1.448-.01-2.642.02-2.642s.294.111.618.253a6.37,6.37,0,0,0,3.128.638,3.029,3.029,0,0,0,2.409-.962,2.89,2.89,0,0,0,.84-2.258,3.806,3.806,0,0,0-1.154-2.733,4.717,4.717,0,0,1-1.306-2.369c-.04-.506-.03-.537.344-.861s.4-.334.992-.284a8.3,8.3,0,0,1,2.187.678c2.47.992,3.473,1.174,4.606.871a3.773,3.773,0,0,0,2.541-2.045,2.864,2.864,0,0,0,.294-1.721,2.906,2.906,0,0,0-.395-1.9,6.134,6.134,0,0,0-1.073-1.519c-1.448-1.519-2.845-2.045-7.39-2.794-3.533-.587-4.87-.982-6.2-1.832l-.486-.314v-4.849a36.675,36.675,0,0,1,.111-4.849C14.639-483.38,18.456-482.155,23.062-480.657Zm-18.031.243c.942,1.073,5.659,6.074,6.5,6.9l.921.911v15.611l-1.083.182a29.027,29.027,0,0,0-7.856,2.744l-1.488.749.02-13.384.03-13.384,1.164-.375c.638-.2,1.215-.375,1.286-.385S4.819-480.657,5.032-480.414ZM49.81-471.97v7.37l-1.164-.03a5.563,5.563,0,0,0-1.954.182,9.532,9.532,0,0,0-4.93,3.756,17.806,17.806,0,0,1-2.075,2.4l-.3.233.02-8.98.03-8.98,5.062-1.65c2.784-.911,5.123-1.65,5.194-1.65C49.779-479.33,49.81-477.792,49.81-471.97Zm-32.771,1.792c.5.142,2.025.445,3.392.668a19.915,19.915,0,0,1,5.133,1.255c2.248,1.043,3.118,3.371,1.63,4.394-.749.506-1.438.415-3.756-.537a7.159,7.159,0,0,0-3.442-.84,2.923,2.923,0,0,0-2.156.931,2.392,2.392,0,0,0-.881,2.237,2.986,2.986,0,0,0,.223,1.488c.121.273.182.486.142.486s-.334-.051-.638-.111a1.17,1.17,0,0,0-.911.051,1.046,1.046,0,0,0-.3,1.67c.233.243.466.314,1.529.516a3.684,3.684,0,0,0,1.6.121c.3-.091.354-.081.486.111q.7,1.093-.061,1.731c-.567.486-1.6.354-3.5-.445l-1.043-.425V-471.1l.84.334C15.773-470.583,16.553-470.32,17.039-470.178ZM49.5-462.464l.314.071-.02,8.605-.03,8.605-5.062,1.65c-2.784.911-5.123,1.66-5.183,1.66-.1,0-.132-.729-.132-3.29,0-3.23,0-3.29.192-3.189a1.072,1.072,0,0,0,1.438-1.336,4.168,4.168,0,0,0-.861-.911l-.769-.638v-2.2c0-2.065.01-2.2.192-2.258a7.441,7.441,0,0,0,2.025-1.468c.354-.354,1.1-1.225,1.66-1.924,1.691-2.106,2.541-2.835,3.766-3.26A6.666,6.666,0,0,1,49.5-462.464ZM34.684-456.2a9.445,9.445,0,0,0,2.4.81l.273.051v6.732c0,3.847-.04,6.732-.091,6.732-.1,0-11.076-3.553-11.136-3.6-.1-.091.567-1,.921-1.265a5.021,5.021,0,0,1,2.814-.7c1.934-.132,2.754-.425,3.513-1.235a2.472,2.472,0,0,0,.192-3,9.9,9.9,0,0,0-.962-1.336,7.907,7.907,0,0,1-.719-.921,1.993,1.993,0,0,1,.678.324c.871.506,1.326.526,1.762.1a.875.875,0,0,0,.294-.749c0-.567-.213-.79-1.306-1.4a3.9,3.9,0,0,1-.82-.526,2.213,2.213,0,0,1,1.063-.476A5.7,5.7,0,0,1,34.684-456.2Zm-22.252,4.161-.03,2.8-5.062,1.65c-2.784.911-5.123,1.65-5.183,1.66-.1,0-.132-.557-.132-2.46v-2.46l1.245-.678a34.762,34.762,0,0,1,5.841-2.551,26.724,26.724,0,0,1,3.219-.749C12.432-454.831,12.452-454.243,12.432-452.036Z" transform="translate(0 485.901)" fill="#fff"/>
  <path id="Path_23258" data-name="Path 23258" d="M229.266-218.976a1.066,1.066,0,0,0,.233,1.63,10.2,10.2,0,0,0,1.377.354c.972.213,1.245.243,1.529.142a1.089,1.089,0,0,0,.415-1.66,4.856,4.856,0,0,0-2.511-.719l-.769-.071Z" transform="translate(-205.809 246.29)" fill="#fff"/>
  <path id="Path_23259" data-name="Path 23259" d="M38.658-363.638a3.623,3.623,0,0,0-2.126,5,3.711,3.711,0,0,0,1.711,1.681l.456.172v.992c0,.962.01,1.012.294,1.326a.792.792,0,0,0,.769.334.792.792,0,0,0,.769-.334c.283-.314.294-.364.294-1.326v-.992l.456-.172a3.782,3.782,0,0,0,.952-.648,3.609,3.609,0,0,0-.931-5.841A4.047,4.047,0,0,0,38.658-363.638Zm1.7,2.106a1.388,1.388,0,0,1,.82,1.326,1.3,1.3,0,0,1-.911,1.326,1.432,1.432,0,0,1-1.65-2.217A1.432,1.432,0,0,1,40.359-361.532Z" transform="translate(-32.523 376.141)" fill="#fff"/>
  <path id="Path_23260" data-name="Path 23260" d="M74.506-256.528a1.106,1.106,0,0,0-.344,1.6,8.288,8.288,0,0,0,2.673,1.185,1.027,1.027,0,0,0,.8-1.711,9.09,9.09,0,0,0-2.541-1.185A1.259,1.259,0,0,0,74.506-256.528Z" transform="translate(-66.467 279.854)" fill="#fff"/>
  <path id="Path_23261" data-name="Path 23261" d="M408.278-195.338a3.59,3.59,0,0,0-2.7,4.88,3.9,3.9,0,0,0,1.711,1.843l.537.263.04,1.073c.03,1.023.04,1.073.314,1.306a.974.974,0,0,0,.688.243c.85,0,1.1-.385,1.1-1.7v-.911l.547-.263a3.863,3.863,0,0,0,1.741-1.9,3.96,3.96,0,0,0-.5-3.493A3.622,3.622,0,0,0,408.278-195.338Zm1.6,2.48a1.419,1.419,0,0,1-.972,2.47,1.431,1.431,0,0,1-1.377-1.853A1.443,1.443,0,0,1,409.877-192.857Z" transform="translate(-364.309 224.798)" fill="#fff"/>
</svg>
