<svg xmlns="http://www.w3.org/2000/svg" width="46.106" height="46.079" viewBox="0 0 46.106 46.079">
  <g id="verify" transform="translate(0.15 511.854)">
    <path id="Path_23222" data-name="Path 23222" d="M15.053-511.723a5.028,5.028,0,0,0-3.442,3.252l-.135.477H9.837c-1.378,0-1.676.027-1.856.144a1.527,1.527,0,0,0-.459,1.252v.5H5.837c-2.514,0-3.37.279-4.532,1.441A4.717,4.717,0,0,0,0-502.4c-.2.874-.2,26.317,0,27.19a4.9,4.9,0,0,0,2.568,3.18,6.163,6.163,0,0,0,1.153.423c.324.063,2.766.1,7.55.1,6.442,0,7.1-.009,7.334-.153a.975.975,0,0,0,.234-1.442l-.216-.252-7.289-.045-7.28-.045-.6-.3a2.736,2.736,0,0,1-1.414-1.46l-.234-.5v-26.217l.3-.6a2.736,2.736,0,0,1,1.46-1.414c.468-.225.586-.234,2.234-.261l1.73-.036v.55a3.231,3.231,0,0,0,1.009,2.595c.8.739.459.7,7.73.7H22.7l.514-.252a3.068,3.068,0,0,0,1.342-1.342,2.945,2.945,0,0,0,.252-1.288l.054-.9h1.757c1.712,0,1.766.009,2.261.234a3.139,3.139,0,0,1,1.442,1.4c.216.441.216.469.261,3.865.045,3.694.054,3.712.541,3.964a.852.852,0,0,0,.91-.009c.5-.252.532-.45.532-3.7,0-3.46-.054-3.955-.532-4.937a4.614,4.614,0,0,0-2.676-2.46,6.387,6.387,0,0,0-2.577-.27l-1.964-.036v-.658c0-.577-.027-.7-.216-.919l-.216-.252-1.739-.045-1.73-.045-.108-.369A4.872,4.872,0,0,0,15.053-511.723Zm2.342,2.054a2.908,2.908,0,0,1,1.658,2.342c.144,1.153.279,1.225,2.342,1.225h1.532v1.532c0,1.739-.072,2-.586,2.216-.45.189-11.793.189-12.244,0-.559-.234-.595-.36-.595-2.144v-1.6h1.541c2.009,0,2.144-.072,2.288-1.216a2.979,2.979,0,0,1,1.378-2.18A2.777,2.777,0,0,1,17.4-509.668Z" transform="translate(0 0)" fill="#fff"/>
    <path id="Path_23223" data-name="Path 23223" d="M64.818-340.831a.982.982,0,0,0-.153,1.523l.234.216,9.9.027c11.019.027,10.316.063,10.586-.586a.932.932,0,0,0-.3-1.108c-.225-.18-.333-.18-10.154-.171C68.259-340.93,64.953-340.894,64.818-340.831Z" transform="translate(-58.711 -155.522)" fill="#fff"/>
    <path id="Path_23224" data-name="Path 23224" d="M64.818-276.831a.982.982,0,0,0-.153,1.523l.234.216,7.018.027c7.82.027,7.442.054,7.7-.586a.932.932,0,0,0-.3-1.108c-.225-.18-.342-.18-7.271-.171C67.376-276.93,64.953-276.894,64.818-276.831Z" transform="translate(-58.711 -213.755)" fill="#fff"/>
    <path id="Path_23225" data-name="Path 23225" d="M245.571-276.532a12.6,12.6,0,0,0-10.37,10.676,17.249,17.249,0,0,0,.135,4.153,12.457,12.457,0,0,0,3.306,6.171,12.35,12.35,0,0,0,6.46,3.577,14.354,14.354,0,0,0,4.964,0,12.3,12.3,0,0,0,6.325-3.433,12.3,12.3,0,0,0,3.433-6.325,14.353,14.353,0,0,0,0-4.964,12.229,12.229,0,0,0-1.144-3.207,11.776,11.776,0,0,0-2.433-3.252,12.439,12.439,0,0,0-6.126-3.3A19.2,19.2,0,0,0,245.571-276.532Zm4.325,2.027a10.662,10.662,0,0,1,7.928,7.721,10.561,10.561,0,0,1-2.784,10.046,10.517,10.517,0,0,1-13.478,1.216,11.815,11.815,0,0,1-3.46-3.991,10.822,10.822,0,0,1-1-5.937,10.62,10.62,0,0,1,8.811-9.181A13.123,13.123,0,0,1,249.9-274.505Z" transform="translate(-214.084 -214.036)" fill="#fff"/>
    <path id="Path_23226" data-name="Path 23226" d="M310.035-191.942c-.081.045-1.541,1.667-3.234,3.6l-3.081,3.523-1.541-1.532c-.847-.838-1.64-1.595-1.766-1.676a1.2,1.2,0,0,0-.568-.144.928.928,0,0,0-.748,1.424c.072.135,1.036,1.144,2.144,2.234,2.171,2.162,2.315,2.252,2.883,1.973.189-.09,1.6-1.649,3.793-4.153,3.37-3.865,3.487-4.018,3.487-4.37A.977.977,0,0,0,310.035-191.942Z" transform="translate(-272.17 -290.996)" fill="#fff"/>
    <path id="Path_23227" data-name="Path 23227" d="M64.818-212.87a.982.982,0,0,0-.153,1.523l.234.216H75.314l.234-.216a.971.971,0,0,0-.18-1.532C75.07-213.014,65.106-213.005,64.818-212.87Z" transform="translate(-58.711 -271.95)" fill="#fff"/>
  </g>
</svg>
